#!OML:ASF F:\twosubjects\two\wednesday\Session 1\rory1.ASF
:FULLY-SPECIFIED
:DEGREES
129
root 13.9384 17.9884 5.03957 -173.211 -1.66181 -190.483
lowerback -2.71797 -3.68056 -11.8568
upperback -0.534237 -4.66898 -0.638605
thorax 1.84754 -2.45707 5.71842
lowerneck -10.8503 0.553952 -1.14703
upperneck 15.9788 2.03185 -3.77246
head 6.69348 0.758328 -0.820383
rclavicle 3.60297e-014 -1.19271e-014
rhumerus -70.62 -26.6516 -41.0897
rradius 8.93679
rwrist 26.1436
rhand -15.3004 29.2564
rfingers 7.12502
rthumb 10.875 -0.441977
lclavicle 3.60297e-014 -1.19271e-014
lhumerus 32.4664 1.77806 73.6951
lradius 34.3549
lwrist 24.032
lhand -20.2983 18.1834
lfingers 7.12502
lthumb 6.05186 48.077
rfemur -40.728 13.8574 0.181696
rtibia 30.043
rfoot -4.94594 -11.0541
rtoes 4.73904
lfemur 15.8798 -4.57531 -33.6468
ltibia 9.06752
lfoot -9.78382 -0.713599
ltoes -18.5651
130
root 13.9571 17.9513 4.84194 -173.188 -1.82285 -190.393
lowerback -2.74699 -3.62079 -11.6009
upperback -0.754854 -4.61245 -0.679729
thorax 1.59705 -2.40679 5.54639
lowerneck -10.6129 0.433517 -1.14032
upperneck 15.9452 1.84911 -3.69324
head 6.63744 0.682716 -0.812862
rclavicle 6.73383e-015 2.14687e-014
rhumerus -70.7125 -26.9045 -41.0194
rradius 9.07227
rwrist 26.7509
rhand -15.6541 29.4657
rfingers 7.12502
rthumb 10.5338 -0.250298
lclavicle 6.73383e-015 2.14687e-014
lhumerus 31.2334 0.933677 73.7342
lradius 34.9202
lwrist 24.6266
lhand -20.4942 19.4874
lfingers 7.12502
lthumb 5.86268 49.3863
rfemur -39.3383 13.4314 1.03845
rtibia 30.524
rfoot -4.65605 -10.355
rtoes 3.93465
lfemur 16.6402 -4.70227 -33.4858
ltibia 8.91226
lfoot -9.3453 -0.824811
ltoes -19.9921
131
root 13.9751 17.9469 4.64744 -173.105 -1.96374 -190.167
lowerback -2.65657 -3.55042 -11.1373
upperback -1.12945 -4.57666 -0.71974
thorax 1.10699 -2.35052 5.27411
lowerneck -10.0825 0.338272 -1.12789
upperneck 15.8975 1.69944 -3.58825
head 6.52611 0.63363 -0.795033
rclavicle -1.56294e-014 3.81667e-014
rhumerus -70.8144 -27.0425 -40.9482
rradius 9.04763
rwrist 27.0122
rhand -15.3634 29.0926
rfingers 7.12502
rthumb 10.8142 -0.609025
lclavicle -1.56294e-014 3.81667e-014
lhumerus 29.8901 0.395764 73.9822
lradius 35.1474
lwrist 24.6036
lhand -19.7803 20.0482
lfingers 7.12502
lthumb 6.5519 49.9269
rfemur -38.6496 13.5655 1.60546
rtibia 30.8741
rfoot -2.24768 -10.0048
rtoes 9.3053
lfemur 17.4041 -4.81228 -33.1748
ltibia 8.47404
lfoot -8.36109 -0.85874
ltoes -20.0596
132
root 13.9923 17.9536 4.45885 -172.99 -1.93999 -190.037
lowerback -2.69709 -3.47586 -10.8913
upperback -1.38198 -4.50079 -0.702327
thorax 0.834575 -2.29166 5.16983
lowerneck -9.87118 0.248952 -1.22303
upperneck 15.9488 1.5989 -3.556
head 6.5035 0.589427 -0.777555
rclavicle -9.06955e-015 1.15295e-014
rhumerus -70.5329 -27.3443 -40.9867
rradius 9.00957
rwrist 27.2658
rhand -15.2293 29.4148
rfingers 7.12502
rthumb 10.9436 -0.279979
lclavicle -9.06955e-015 1.15295e-014
lhumerus 28.8133 0.705035 74.8546
lradius 34.7084
lwrist 23.7676
lhand -19.789 18.3107
lfingers 7.12502
lthumb 6.54351 48.1896
rfemur -38.3783 13.6408 2.01231
rtibia 31.0118
rfoot -3.03152 -10.6034
rtoes 2.50049
lfemur 17.9529 -4.78138 -32.9534
ltibia 8.229
lfoot -7.01933 -0.917706
ltoes -18.9892
133
root 14.0096 17.9746 4.28064 -172.793 -1.59827 -189.567
lowerback -3.00301 -3.21519 -10.4154
upperback -1.41307 -4.12034 -0.579188
thorax 0.887883 -2.10007 5.04205
lowerneck -10.1527 0.0913549 -1.13361
upperneck 16.0234 1.40857 -3.74646
head 6.57599 0.481644 -0.86933
rclavicle -1.40143e-014 2.26615e-014
rhumerus -70.0531 -28.1153 -40.9253
rradius 8.9542
rwrist 27.7087
rhand -15.2234 29.8983
rfingers 7.12502
rthumb 10.9492 0.20385
lclavicle -1.40143e-014 2.26615e-014
lhumerus 28.0343 0.616623 75.79
lradius 34.7839
lwrist 23.9097
lhand -19.6708 17.707
lfingers 7.12502
lthumb 6.65757 47.5824
rfemur -38.5185 13.6936 2.78837
rtibia 31.0045
rfoot -3.29857 -9.90951
rtoes -0.700285
lfemur 18.0934 -4.4259 -32.3571
ltibia 8.32365
lfoot -5.81579 -0.99004
ltoes -18.5363
134
root 14.0197 18.007 4.10776 -172.754 -1.14998 -188.581
lowerback -3.16709 -2.90016 -9.37262
upperback -1.3468 -3.68284 -0.318379
thorax 0.935882 -1.87627 4.75145
lowerneck -10.5068 0.0309758 -0.922826
upperneck 15.9947 1.33812 -4.04825
head 6.63079 0.427108 -1.00716
rclavicle -1.22998e-014 3.45885e-014
rhumerus -69.1444 -29.1182 -41.0396
rradius 8.64141
rwrist 28.5248
rhand -15.5982 29.8737
rfingers 7.12502
rthumb 10.5878 0.160442
lclavicle -1.22998e-014 3.45885e-014
lhumerus 27.3544 0.40122 76.4641
lradius 34.4993
lwrist 23.5047
lhand -19.0122 18.4163
lfingers 7.12502
lthumb 7.29333 48.2706
rfemur -38.5697 13.7918 4.18661
rtibia 30.9505
rfoot -2.60842 -9.0028
rtoes -0.948894
lfemur 17.8717 -3.85963 -31.2738
ltibia 9.37757
lfoot -5.02146 -1.03895
ltoes -19.6328
135
root 14.0248 18.0334 3.93437 -173.006 -0.596839 -187.248
lowerback -3.02192 -2.67814 -7.92251
upperback -1.29376 -3.41215 0.0881029
thorax 0.81668 -1.72576 4.38797
lowerneck -10.4228 0.128244 -0.903344
upperneck 15.7221 1.50281 -4.35223
head 6.53494 0.487368 -1.09259
rclavicle -5.71506e-015 -5.1684e-015
rhumerus -67.7541 -29.9063 -41.6222
rradius 8.26387
rwrist 29.6524
rhand -16.5377 28.9018
rfingers 7.12502
rthumb 9.68141 -0.855719
lclavicle -5.71506e-015 -5.1684e-015
lhumerus 26.2494 -0.0649744 76.6541
lradius 34.5646
lwrist 25.2245
lhand -19.0351 19.3997
lfingers 7.12502
lthumb 7.27128 49.2547
rfemur -38.2173 13.7323 6.17966
rtibia 30.9366
rfoot -1.61114 -8.03887
rtoes 0.937604
lfemur 17.4974 -3.08475 -29.8735
ltibia 11.3641
lfoot -4.65992 -1.21556
ltoes -21.1844
136
root 14.0328 18.0493 3.76784 -173.335 0.27511 -186.001
lowerback -2.74654 -2.35005 -6.62854
upperback -1.21277 -3.00937 0.474962
thorax 0.651353 -1.51279 4.09658
lowerneck -10.2774 0.246799 -1.04208
upperneck 15.398 1.6957 -4.5285
head 6.41148 0.56485 -1.10859
rclavicle -5.13113e-014 2.66371e-014
rhumerus -66.1175 -30.9066 -42.3711
rradius 7.7361
rwrist 30.7291
rhand -17.1404 27.6993
rfingers 7.12502
rthumb 9.0999 -2.0844
lclavicle -5.13113e-014 2.66371e-014
lhumerus 24.8758 0.43761 77.6204
lradius 34.7923
lwrist 25.2321
lhand -18.2259 17.1036
lfingers 7.12502
lthumb 8.05227 46.9302
rfemur -37.64 13.4743 8.242
rtibia 31.035
rfoot -1.23433 -6.66265
rtoes 2.34387
lfemur 16.9516 -2.50101 -28.7109
ltibia 13.7313
lfoot -4.22919 -1.03927
ltoes -21.7623
137
root 14.0392 18.0675 3.60983 -173.635 1.02592 -185.092
lowerback -2.32203 -2.07431 -5.70447
upperback -1.17271 -2.62453 0.771508
thorax 0.386169 -1.28493 3.91757
lowerneck -10.0827 0.346921 -1.01352
upperneck 15.0444 1.8391 -4.7644
head 6.27087 0.625147 -1.17573
rclavicle 7.95139e-016 7.95139e-015
rhumerus -64.515 -31.8346 -43.0036
rradius 7.2453
rwrist 31.5973
rhand -16.9883 27.3776
rfingers 7.12502
rthumb 9.24662 -2.39964
lclavicle 7.95139e-016 7.95139e-015
lhumerus 23.2385 1.21643 78.8699
lradius 35.1771
lwrist 24.5108
lhand -22.829 11.8198
lfingers 7.12502
lthumb 3.6082 41.769
rfemur -36.9119 13.2599 9.79728
rtibia 31.3409
rfoot -1.41232 -5.48377
rtoes 3.13193
lfemur 16.3539 -1.90044 -27.8211
ltibia 16.012
lfoot -2.99653 -0.868027
ltoes -21.0374
138
root 14.0521 18.0849 3.45668 -173.949 1.56094 -184.72
lowerback -1.87141 -1.87236 -5.38275
upperback -1.13906 -2.39358 0.890359
thorax 0.135183 -1.16645 3.88288
lowerneck -9.71849 0.405493 -0.655535
upperneck 14.7029 1.905 -5.19482
head 6.10746 0.656979 -1.36554
rclavicle 3.00165e-014 -2.54444e-014
rhumerus -63.0015 -32.6134 -43.7023
rradius 6.94251
rwrist 32.3279
rhand -16.4121 27.5657
rfingers 7.12502
rthumb 9.80254 -2.18618
lclavicle 3.00165e-014 -2.54444e-014
lhumerus 21.5148 1.79314 79.7604
lradius 35.4751
lwrist 24.0951
lhand -21.2043 20.595
lfingers 7.12502
lthumb 5.17708 50.5118
rfemur -36.2239 13.2338 10.6018
rtibia 31.7668
rfoot -1.56465 -4.57125
rtoes 2.86585
lfemur 15.6314 -1.57089 -27.4372
ltibia 18.4019
lfoot -1.51914 -0.598451
ltoes -19.686
139
root 14.0739 18.0996 3.29794 -174.272 2.18804 -184.885
lowerback -1.62551 -1.69712 -5.72
upperback -0.9568 -2.17044 0.859997
thorax 0.171873 -1.06131 4.05177
lowerneck -9.80627 0.478583 -0.372354
upperneck 14.6375 1.99794 -5.46796
head 6.10905 0.695263 -1.49113
rclavicle 2.87244e-014 3.18055e-015
rhumerus -61.1233 -33.6898 -44.7569
rradius 6.57192
rwrist 33.1542
rhand -16.1029 27.8905
rfingers 7.12502
rthumb 10.1009 -1.84706
lclavicle 2.87244e-014 3.18055e-015
lhumerus 19.8557 2.36705 80.4713
lradius 35.7139
lwrist 23.9397
lhand -18.4917 19.2597
lfingers 7.12502
lthumb 7.79579 49.096
rfemur -35.6222 13.1328 10.8569
rtibia 32.2116
rfoot -1.78995 -3.39236
rtoes 1.90835
lfemur 14.6702 -1.17862 -27.5774
ltibia 21.1127
lfoot 0.151127 -0.398367
ltoes -16.925
